<?xml version="1.0" encoding="UTF-8"?>
<svg width="950mm" height="150mm" version="1.2" xmlns="http://www.w3.org/2000/svg">
 <path transform="rotate(-45)" d="m58.527 494.53a188.98 188.98 0 0 1-212.57 88.049 188.98 188.98 0 0 1-140.07-182.54 188.98 188.98 0 0 1 140.07-182.54 188.98 188.98 0 0 1 212.57 88.049l-163.66 94.488z" fill="#222" stroke-width="6.2992"/>
 <path transform="rotate(-45)" d="m4.266 462.99a125.97 125.97 0 0 1-141.7 58.693 125.97 125.97 0 0 1-93.368-121.68 125.97 125.97 0 0 1 93.368-121.68 125.97 125.97 0 0 1 141.7 58.693l-109.09 62.986z" fill="#007acc" stroke-width="8.3981"/>
 <path d="m294.28 50.709q-236.39 457.14 220.75 220.75" fill="none" stroke="#222" stroke-linecap="round" stroke-linejoin="round" stroke-width="65.764"/>
 <path d="m820.6 472.49q-43.13 0-79.423-14.201t-63.117-39.448q-26.825-25.773-41.552-59.962-14.727-34.715-14.727-75.741t14.727-75.215q14.727-34.715 41.552-59.962 26.825-25.773 63.117-39.974 36.293-14.201 78.897-14.201 43.13 0 78.897 14.201 36.293 14.201 63.117 39.974 26.825 25.247 41.552 59.962 14.727 34.189 14.727 75.215t-14.727 75.741q-14.727 34.715-41.552 59.962-26.825 25.247-63.117 39.448-35.767 14.201-78.371 14.201zm-0.52598-59.962q27.877 0 51.546-9.4676 23.669-9.4676 41.026-26.825 17.357-17.883 26.825-41.026 9.9936-23.669 9.9936-52.072t-9.9936-51.546q-9.4676-23.669-26.825-41.026-17.357-17.883-41.026-27.351-23.669-9.4676-51.546-9.4676-27.877 0-51.546 9.4676-23.143 9.4676-41.026 27.351-17.357 17.357-27.351 41.026-9.4676 23.143-9.4676 51.546 0 27.877 9.4676 51.546 9.9936 23.669 27.351 41.552 17.357 17.357 41.026 26.825 23.669 9.4676 51.546 9.4676zm420.26 58.384q-34.189 0-62.592-15.779-27.877-15.779-44.708-47.338-16.305-32.085-16.305-81.001 0-49.442 15.779-81.001 16.305-31.559 44.182-46.812 27.877-15.779 63.643-15.779 41.552 0 73.111 17.883 32.085 17.883 50.494 49.968 18.935 32.085 18.935 75.741t-18.935 76.267q-18.409 32.085-50.494 49.968-31.559 17.883-73.111 17.883zm-155.69 98.358v-382.91h62.592v66.273l-2.104 74.689 5.2598 74.689v167.26zm148.33-154.64q23.669 0 42.078-10.52 18.935-10.52 29.981-30.507 11.046-19.987 11.046-46.812 0-27.351-11.046-46.812-11.046-19.987-29.981-30.507-18.409-10.52-42.078-10.52-23.669 0-42.604 10.52-18.935 10.52-29.981 30.507-11.046 19.461-11.046 46.812 0 26.825 11.046 46.812 11.046 19.987 29.981 30.507 18.935 10.52 42.604 10.52zm344.52 56.28q-46.812 0-82.053-18.409-34.715-18.935-54.176-51.546-18.935-32.611-18.935-74.163 0-42.078 18.409-74.163 18.935-32.611 51.546-51.02 33.137-18.409 75.215-18.409 41.026 0 73.111 17.883 32.085 17.883 50.494 50.494 18.409 32.611 18.409 76.793 0 4.2078-0.5259 9.4676 0 5.2598-0.526 9.9936h-234.06v-43.656h199.35l-25.773 13.675q0.526-24.195-9.9936-42.604-10.52-18.409-28.929-28.929-17.883-10.52-41.552-10.52-24.195 0-42.604 10.52-17.883 10.52-28.403 29.455-9.9936 18.409-9.9936 43.656v10.52q0 25.247 11.572 44.708 11.572 19.461 32.611 29.981 21.039 10.52 48.39 10.52 23.669 0 42.604-7.3637 18.935-7.3637 33.663-23.143l35.241 40.5q-18.935 22.091-47.864 34.189-28.403 11.572-65.221 11.572zm195.14-3.6819v-280.87h62.592v75.741l-11.046-23.143q14.727-26.825 42.604-41.026 28.403-14.727 65.221-14.727 33.663 0 59.962 13.149 26.825 13.149 42.078 40.5 15.253 26.825 15.253 69.429v160.95h-65.747v-152.53q0-37.345-17.883-55.754-17.357-18.409-48.916-18.409-23.143 0-41.026 9.4676-17.883 9.4676-27.877 28.403-9.4676 18.409-9.4676 46.812v142.01zm475.48 0-160.95-368.19h74.163l143.59 332.94h-42.604l145.17-332.94h68.377l-160.42 368.19zm412.37 0v-56.806l-3.6819-12.098v-99.41q0-28.929-17.357-44.708-17.357-16.305-52.598-16.305-23.669 0-46.812 7.3637-22.617 7.3637-38.396 20.513l-25.773-47.864q22.617-17.357 53.65-25.773 31.559-8.9416 65.221-8.9416 61.014 0 94.15 29.455 33.663 28.929 33.663 89.942v164.63zm-88.364 3.6819q-31.559 0-55.228-10.52-23.669-11.046-36.818-29.981-12.624-19.461-12.624-43.656 0-23.669 11.046-42.604 11.572-18.935 37.344-29.981 25.773-11.046 68.377-11.046h81.527v43.656h-76.793q-33.663 0-45.234 11.046-11.572 10.52-11.572 26.299 0 17.883 14.201 28.403 14.202 10.52 39.448 10.52 24.195 0 43.13-11.046 19.461-11.046 27.877-32.611l11.046 39.448q-9.4676 24.721-34.189 38.396-24.195 13.675-61.54 13.675zm234.59-3.6819v-390.28h65.747v390.28zm226.7 0-120.45-280.87h68.377l103.62 247.74h-33.663l107.3-247.74h63.118l-120.45 280.87zm353.46 3.6819q-46.812 0-82.053-18.409-34.715-18.935-54.176-51.546-18.935-32.611-18.935-74.163 0-42.078 18.409-74.163 18.935-32.611 51.546-51.02 33.137-18.409 75.215-18.409 41.026 0 73.111 17.883 32.085 17.883 50.494 50.494t18.409 76.793q0 4.2078-0.526 9.4676 0 5.2598-0.526 9.9936h-234.06v-43.656h199.35l-25.773 13.675q0.526-24.195-9.9936-42.604-10.52-18.409-28.929-28.929-17.883-10.52-41.552-10.52-24.195 0-42.604 10.52-17.883 10.52-28.403 29.455-9.9936 18.409-9.9936 43.656v10.52q0 25.247 11.572 44.708 11.572 19.461 32.611 29.981t48.39 10.52q23.669 0 42.604-7.3637 18.935-7.3637 33.663-23.143l35.241 40.5q-18.935 22.091-47.864 34.189-28.403 11.572-65.221 11.572z" fill="#222" stroke-width="2.7395" aria-label="OpenValve"/>
</svg>
