<?xml version="1.0" encoding="UTF-8" standalone="no"?>
<svg
   height="150mm"
   version="1.2"
   width="950mm"
   id="svg2"
   xmlns="http://www.w3.org/2000/svg"
   xmlns:svg="http://www.w3.org/2000/svg">
  <defs
     id="defs1" />
  <path
     fill="#ffffff"
     id="circle1"
     style="display:inline;fill:#e3e3e3;fill-opacity:1;stroke-width:6.29921"
     d="M 58.527333,494.5285 A 188.97638,188.97638 0 0 1 -154.0417,582.57748 188.97638,188.97638 0 0 1 -294.10739,400.04031 188.97638,188.97638 0 0 1 -154.0417,217.50315 188.97638,188.97638 0 0 1 58.52733,305.55212 l -163.65834,94.48819 z"
     transform="rotate(-45)" />
  <path
     fill="#007acc"
     id="circle2"
     style="display:inline;stroke-width:8.39811"
     d="M 4.2660109,462.98836 A 125.97166,125.97166 0 0 1 -137.43251,521.68181 125.97166,125.97166 0 0 1 -230.8003,400.00253 125.97166,125.97166 0 0 1 -137.43251,278.32326 125.97166,125.97166 0 0 1 4.2660092,337.0167 L -104.82864,400.00253 Z"
     transform="rotate(-45)" />
  <path
     d="M 294.28269,50.709036 Q 57.891446,507.85097 515.03338,271.45972"
     fill="none"
     stroke="#ffffff"
     stroke-linecap="round"
     stroke-linejoin="round"
     stroke-width="10"
     id="path2"
     style="display:inline;stroke:#e3e3e3;stroke-width:65.7638;stroke-dasharray:none;stroke-opacity:1" />
  <path
     style="font-weight:600;font-size:525.979px;line-height:1.25;font-family:Montserrat;-inkscape-font-specification:'Montserrat Semi-Bold';letter-spacing:0px;word-spacing:0px;fill:#e3e3e3;fill-opacity:1;stroke-width:2.73947"
     d="m 820.5962,472.48812 q -43.13028,0 -79.42283,-14.20143 -36.29255,-14.20143 -63.11748,-39.44843 -26.82493,-25.77297 -41.55235,-59.9616 -14.72741,-34.71462 -14.72741,-75.74098 0,-41.02636 14.72741,-75.215 14.72742,-34.71461 41.55235,-59.9616 26.82493,-25.77297 63.11748,-39.97441 36.29255,-14.20143 78.89685,-14.20143 43.13028,0 78.89685,14.20143 36.29255,14.20144 63.11748,39.97441 26.82493,25.24699 41.55235,59.9616 14.7274,34.18864 14.7274,75.215 0,41.02636 -14.7274,75.74098 -14.72742,34.71461 -41.55235,59.9616 -26.82493,25.247 -63.11748,39.44843 -35.76657,14.20143 -78.37087,14.20143 z m -0.52598,-59.9616 q 27.87688,0 51.54594,-9.46763 23.66905,-9.46762 41.02636,-26.82493 17.35731,-17.88328 26.82493,-41.02636 9.9936,-23.66905 9.9936,-52.07192 0,-28.40287 -9.9936,-51.54594 -9.46762,-23.66906 -26.82493,-41.02636 -17.35731,-17.88329 -41.02636,-27.35091 -23.66906,-9.46762 -51.54594,-9.46762 -27.87689,0 -51.54595,9.46762 -23.14307,9.46762 -41.02636,27.35091 -17.3573,17.3573 -27.35091,41.02636 -9.46762,23.14307 -9.46762,51.54594 0,27.87689 9.46762,51.54594 9.99361,23.66906 27.35091,41.55234 17.35731,17.35731 41.02636,26.82493 23.66906,9.46763 51.54595,9.46763 z m 420.25768,58.38367 q -34.1886,0 -62.5915,-15.77937 -27.8769,-15.77937 -44.7082,-47.33811 -16.3053,-32.08472 -16.3053,-81.00077 0,-49.44203 15.7793,-81.00077 16.3054,-31.55874 44.1823,-46.81213 27.8769,-15.77937 63.6434,-15.77937 41.5524,0 73.1111,17.88329 32.0847,17.88328 50.494,49.968 18.9352,32.08472 18.9352,75.74098 0,43.65626 -18.9352,76.26695 -18.4093,32.08472 -50.494,49.96801 -31.5587,17.88329 -73.1111,17.88329 z m -155.6897,98.35807 V 186.35554 h 62.5915 v 66.27336 l -2.104,74.68902 5.2598,74.68902 v 167.26132 z m 148.326,-154.63783 q 23.6691,0 42.0784,-10.51958 18.9352,-10.51958 29.9808,-30.50678 11.0455,-19.9872 11.0455,-46.81213 0,-27.35091 -11.0455,-46.81213 -11.0456,-19.98721 -29.9808,-30.50679 -18.4093,-10.51958 -42.0784,-10.51958 -23.669,0 -42.6043,10.51958 -18.9352,10.51958 -29.9808,30.50679 -11.0455,19.46122 -11.0455,46.81213 0,26.82493 11.0455,46.81213 11.0456,19.9872 29.9808,30.50678 18.9353,10.51958 42.6043,10.51958 z m 344.5167,56.27976 q -46.8121,0 -82.0527,-18.40927 -34.7146,-18.93524 -54.1759,-51.54594 -18.9352,-32.6107 -18.9352,-74.16304 0,-42.07832 18.4093,-74.16304 18.9352,-32.6107 51.5459,-51.01996 33.1367,-18.40927 75.215,-18.40927 41.0264,0 73.1111,17.88329 32.0847,17.88328 50.494,50.49398 18.4092,32.6107 18.4092,76.79294 0,4.20783 -0.5259,9.46762 0,5.25979 -0.526,9.9936 H 1474.389 v -43.65626 h 199.3461 l -25.773,13.67546 q 0.526,-24.19504 -9.9936,-42.6043 -10.5196,-18.40927 -28.9289,-28.92885 -17.8832,-10.51958 -41.5523,-10.51958 -24.195,0 -42.6043,10.51958 -17.8833,10.51958 -28.4029,29.45483 -9.9936,18.40926 -9.9936,43.65625 v 10.51958 q 0,25.24699 11.5716,44.70822 11.5715,19.46122 32.6107,29.9808 21.0391,10.51958 48.39,10.51958 23.6691,0 42.6043,-7.3637 18.9353,-7.36371 33.6627,-23.14308 l 35.2406,40.50038 q -18.9353,22.09112 -47.8641,34.18864 -28.4029,11.57154 -65.2214,11.57154 z m 195.1381,-3.68186 V 186.35554 h 62.5915 v 75.74098 l -11.0455,-23.14308 q 14.7274,-26.82492 42.6043,-41.02636 28.4029,-14.72741 65.2214,-14.72741 33.6626,0 59.9616,13.14948 26.8249,13.14947 42.0783,40.50038 15.2534,26.82493 15.2534,69.42923 v 160.94957 h -65.7474 V 314.69442 q 0,-37.34451 -17.8833,-55.75377 -17.3573,-18.40927 -48.916,-18.40927 -23.1431,0 -41.0264,9.46762 -17.8833,9.46763 -27.8769,28.40287 -9.4676,18.40927 -9.4676,46.81213 v 142.01433 z m 475.4847,0 -160.9495,-368.1853 h 74.163 l 143.5923,332.94471 h -42.6043 L 2407.4754,99.04303 h 68.3772 l -160.4235,368.1853 z m 412.3675,0 V 410.4226 l -3.6819,-12.09752 v -99.41003 q 0,-28.92884 -17.3573,-44.70821 -17.3573,-16.30535 -52.5979,-16.30535 -23.669,0 -46.8121,7.3637 -22.6171,7.36371 -38.3965,20.51318 l -25.7729,-47.86409 q 22.6171,-17.3573 53.6498,-25.77297 31.5588,-8.94164 65.2214,-8.94164 61.0136,0 94.1503,29.45482 33.6626,28.92885 33.6626,89.94241 v 164.63143 z m -88.3645,3.68186 q -31.5587,0 -55.2278,-10.51958 -23.669,-11.04556 -36.8185,-29.98081 -12.6235,-19.46122 -12.6235,-43.65626 0,-23.66905 11.0456,-42.60429 11.5715,-18.93525 37.3445,-29.98081 25.7729,-11.04556 68.3772,-11.04556 h 81.5268 v 43.65626 h -76.793 q -33.6626,0 -45.2341,11.04556 -11.5716,10.51958 -11.5716,26.29895 0,17.88329 14.2014,28.40287 14.2015,10.51958 39.4485,10.51958 24.195,0 43.1303,-11.04556 19.4612,-11.04556 27.8768,-32.6107 l 11.0456,39.44842 q -9.4676,24.72102 -34.1886,38.39647 -24.1951,13.67546 -61.5396,13.67546 z m 234.5868,-3.68186 V 76.951912 h 65.7474 V 467.22833 Z m 226.6968,0 -120.4492,-280.87279 h 68.3773 l 103.6179,247.73612 h -33.6627 l 107.2997,-247.73612 h 63.1175 l -120.4492,280.87279 z m 353.4577,3.68186 q -46.8121,0 -82.0527,-18.40927 -34.7146,-18.93524 -54.1758,-51.54594 -18.9353,-32.6107 -18.9353,-74.16304 0,-42.07832 18.4093,-74.16304 18.9352,-32.6107 51.5459,-51.01996 33.1367,-18.40927 75.215,-18.40927 41.0264,0 73.1111,17.88329 32.0847,17.88328 50.494,50.49398 18.4093,32.6107 18.4093,76.79294 0,4.20783 -0.526,9.46762 0,5.25979 -0.526,9.9936 h -234.0607 v -43.65626 h 199.3461 l -25.773,13.67546 q 0.526,-24.19504 -9.9936,-42.6043 -10.5196,-18.40927 -28.9288,-28.92885 -17.8833,-10.51958 -41.5524,-10.51958 -24.195,0 -42.6043,10.51958 -17.8833,10.51958 -28.4028,29.45483 -9.9936,18.40926 -9.9936,43.65625 v 10.51958 q 0,25.24699 11.5715,44.70822 11.5715,19.46122 32.6107,29.9808 21.0392,10.51958 48.3901,10.51958 23.669,0 42.6043,-7.3637 18.9352,-7.36371 33.6626,-23.14308 l 35.2406,40.50038 q -18.9352,22.09112 -47.8641,34.18864 -28.4028,11.57154 -65.2214,11.57154 z"
     id="text2"
     aria-label="OpenValve" />
</svg>
